<?xml version="1.0" encoding="UTF-8" standalone="no"?>
<!-- Created with Inkscape (http://www.inkscape.org/) -->

<svg
   width="178.46196mm"
   height="126.2424mm"
   viewBox="0 0 178.46196 126.2424"
   version="1.1"
   id="svg1"
   xml:space="preserve"
   sodipodi:docname="bpdbi-logo-only.svg"
   inkscape:version="1.4.3 (unknown)"
   xmlns:inkscape="http://www.inkscape.org/namespaces/inkscape"
   xmlns:sodipodi="http://sodipodi.sourceforge.net/DTD/sodipodi-0.dtd"
   xmlns="http://www.w3.org/2000/svg"
   xmlns:svg="http://www.w3.org/2000/svg"><sodipodi:namedview
     id="namedview1"
     pagecolor="#ffffff"
     bordercolor="#000000"
     borderopacity="0.25"
     inkscape:showpageshadow="2"
     inkscape:pageopacity="0.0"
     inkscape:pagecheckerboard="0"
     inkscape:deskcolor="#d1d1d1"
     inkscape:document-units="mm"
     inkscape:zoom="0.83601344"
     inkscape:cx="325.9517"
     inkscape:cy="354.65937"
     inkscape:window-width="1920"
     inkscape:window-height="1008"
     inkscape:window-x="0"
     inkscape:window-y="0"
     inkscape:window-maximized="1"
     inkscape:current-layer="svg1" /><defs
     id="defs1" /><path
     id="path3"
     style="fill:#ffffff;stroke-width:6.61792"
     d="M 0.18057624,0.50612749 V 120.73998 H 177.5506 V 0.50612749 Z" /><rect
     style="fill:#000000;stroke-width:0.528294"
     id="rect3"
     width="178.46196"
     height="126.2424"
     x="0"
     y="0"
     ry="0"
     rx="0" /><path
     id="path2"
     style="fill:#ffffff;stroke-width:4.56751"
     d="m 35.626577,14.11486 v 94.28231 H 143.37053 V 14.11486 Z" /><path
     style="fill:#000000;stroke-width:0.93179"
     d="M 29.105661,57.291841 V 12.009838 H 83.29344 149.86645 V 57.291841 123.99662 H 83.29344 29.105661 Z m 63.535273,47.236449 c 3.701921,-2.59292 2.603117,-3.54224 -17.470415,-15.093529 L 59.721792,80.544807 59.573646,62.537786 C 59.40979,42.621177 59.388126,42.469761 56.236719,39.213647 53.399884,36.28255 53.49705,35.47382 53.631298,60.898952 l 0.122611,23.221369 18.196353,10.558287 c 19.029281,11.041582 19.005296,11.030172 20.690672,9.849682 z m 8.589986,-1.67757 c 3.22435,-3.224347 3.09467,-2.1098 3.09467,-26.597787 V 54.094988 L 84.002393,42.342544 C 61.897997,29.560081 63.164894,30.163489 61.379768,31.56767 c -3.257043,2.561987 -3.095622,2.694236 19.006608,15.57134 l 18.267625,10.643009 0.122614,23.268377 c 0.07184,13.641695 0.301267,23.268374 0.554435,23.268374 0.23749,0 1.09244,-0.66062 1.89987,-1.46805 z m 10.74748,-6.212221 c 3.34805,-3.52802 3.21774,-2.443025 3.21774,-26.791999 V 47.898988 L 94.872945,36.174163 C 73.684563,23.950207 73.483703,23.855696 71.950262,25.389144 69.181739,28.157662 68.977397,27.991561 90.79789,40.710046 l 18.49034,10.777456 v 23.028433 c 0,25.808565 -0.0918,25.054028 2.69017,22.122564 z M 93.121608,91.62813 C 95.236894,88.933541 94.351246,88.089581 81.875544,80.911392 L 70.296048,74.248856 70.059732,61.989286 C 69.795147,48.263215 68.46901,43.821808 64.635191,43.821808 c -0.142363,0 -0.203017,7.680808 -0.134787,17.06845 l 0.124053,17.068448 12.97425,7.510139 c 13.319775,7.710149 14.071348,8.008359 15.522901,6.159285 z m 31.763502,-4.133489 c 1.18158,-2.290722 1.18158,-2.290722 1.18158,-24.014285 V 41.756801 L 105.75325,30.028232 C 94.580866,23.577509 85.026798,18.299661 84.521996,18.299661 c -1.993938,0 -3.394904,2.817604 -2.275916,4.577311 0.195834,0.307966 8.753142,5.446735 19.01622,11.419475 l 18.66017,10.859535 0.11819,22.846383 c 0.13851,26.776206 0.44702,28.017556 4.84445,19.492276 z M 92.827041,79.432314 c 0.507789,-0.459541 0.86432,-1.431584 0.86432,-2.356451 0,-1.76648 -0.09748,-1.844509 -8.152908,-6.526542 -4.608174,-2.678394 -4.608174,-2.678394 -4.608174,-7.67678 0,-6.060768 -0.550464,-8.071209 -2.959154,-10.807626 -2.719381,-3.089383 -2.712436,-3.111737 -2.712436,8.729192 v 10.828068 l 7.207647,4.258945 c 7.433494,4.392405 8.88241,4.889031 10.360705,3.551194 z"
     id="path1"
     sodipodi:nodetypes="cccccccccsscssscsssscsssccsscscssscscsscssscsssscsssscsssssssscss" /></svg>
