<?xml version="1.0" encoding="UTF-8" standalone="no"?>
<!-- Created with Inkscape (http://www.inkscape.org/) -->

<svg
   width="178.36153mm"
   height="173.47585mm"
   viewBox="0 0 178.36153 173.47585"
   version="1.1"
   id="svg1"
   xml:space="preserve"
   sodipodi:docname="bpdbi-logo.svg"
   inkscape:version="1.4.3 (unknown)"
   xmlns:inkscape="http://www.inkscape.org/namespaces/inkscape"
   xmlns:sodipodi="http://sodipodi.sourceforge.net/DTD/sodipodi-0.dtd"
   xmlns="http://www.w3.org/2000/svg"
   xmlns:svg="http://www.w3.org/2000/svg"><sodipodi:namedview
     id="namedview1"
     pagecolor="#ffffff"
     bordercolor="#000000"
     borderopacity="0.25"
     inkscape:showpageshadow="2"
     inkscape:pageopacity="0.0"
     inkscape:pagecheckerboard="0"
     inkscape:deskcolor="#d1d1d1"
     inkscape:document-units="mm"
     inkscape:zoom="0.83601344"
     inkscape:cx="438.39008"
     inkscape:cy="205.14024"
     inkscape:window-width="1920"
     inkscape:window-height="1008"
     inkscape:window-x="0"
     inkscape:window-y="0"
     inkscape:window-maximized="1"
     inkscape:current-layer="svg1" /><defs
     id="defs1" /><path
     id="path3"
     style="fill:#ffffff;stroke-width:7.91854"
     d="M 0.36679905,0.73682749 V 172.87375 H 177.73682 V 0.73682749 Z" /><rect
     style="fill:#000000;stroke-width:0.54681"
     id="rect3"
     width="155.35876"
     height="155.35876"
     x="11.57958"
     y="9.0922003"
     ry="6.5134859"
     rx="6.5134859" /><path
     id="path2"
     style="fill:#ffffff;stroke-width:4.56751"
     d="m 35.8128,14.34556 v 94.28231 H 143.55675 V 14.34556 Z" /><path
     style="fill:#000000;stroke-width:0.93179"
     d="M 29.291884,57.522541 V 12.240538 H 83.479663 150.05267 V 57.522541 157.03565 H 83.479663 29.291884 Z m 63.535273,47.236449 c 3.701921,-2.59292 2.603117,-3.54224 -17.470415,-15.093529 L 59.908015,80.775507 59.759869,62.768486 C 59.596013,42.851877 59.574349,42.700461 56.422942,39.444347 53.586107,36.51325 53.683273,35.70452 53.817521,61.129652 l 0.122611,23.221369 18.196353,10.558287 c 19.029281,11.041582 19.005296,11.030172 20.690672,9.849682 z m 8.589983,-1.67757 c 3.22435,-3.224347 3.09467,-2.1098 3.09467,-26.597787 V 54.325688 L 84.188616,42.573244 C 62.08422,29.790781 63.351117,30.394189 61.565991,31.79837 c -3.257043,2.561987 -3.095622,2.694236 19.006608,15.57134 l 18.267625,10.643009 0.122614,23.268377 c 0.07184,13.641695 0.301267,23.268374 0.554435,23.268374 0.23749,0 1.092437,-0.66062 1.899867,-1.46805 z m 10.74748,-6.212221 c 3.34805,-3.52802 3.21774,-2.443025 3.21774,-26.791999 V 48.129688 L 95.059168,36.404863 C 73.870786,24.180907 73.669926,24.086396 72.136485,25.619844 69.367962,28.388362 69.16362,28.222261 90.984113,40.940746 l 18.490337,10.777456 v 23.028433 c 0,25.808565 -0.0918,25.054028 2.69017,22.122564 z M 93.307831,91.85883 C 95.423117,89.164241 94.537469,88.320281 82.061767,81.142092 L 70.482271,74.479556 70.245955,62.219986 C 69.98137,48.493915 68.655233,44.052508 64.821414,44.052508 c -0.142363,0 -0.203017,7.680808 -0.134787,17.06845 l 0.124053,17.068448 12.97425,7.510139 c 13.319775,7.710149 14.071348,8.008359 15.522901,6.159285 z m 31.763499,-4.133489 c 1.18158,-2.290722 1.18158,-2.290722 1.18158,-24.014285 V 41.987501 L 105.93947,30.258932 C 94.767089,23.808209 85.213021,18.530361 84.708219,18.530361 c -1.993938,0 -3.394904,2.817604 -2.275916,4.577311 0.195834,0.307966 8.753142,5.446735 19.016217,11.419475 l 18.66017,10.859535 0.11819,22.846383 c 0.13851,26.776206 0.44702,28.017556 4.84445,19.492276 z M 93.013264,79.663014 c 0.507789,-0.459541 0.86432,-1.431584 0.86432,-2.356451 0,-1.76648 -0.09748,-1.844509 -8.152908,-6.526542 -4.608174,-2.678394 -4.608174,-2.678394 -4.608174,-7.67678 0,-6.060768 -0.550464,-8.071209 -2.959154,-10.807626 -2.719381,-3.089383 -2.712436,-3.111737 -2.712436,8.729192 v 10.828068 l 7.207647,4.258945 c 7.433494,4.392405 8.88241,4.889031 10.360705,3.551194 z"
     id="path1"
     sodipodi:nodetypes="cccccccccsscssscsssscsssccsscscssscscsscssscsssscsssscsssssssscss" /><path
     style="font-weight:bold;font-size:53.3333px;font-family:'Roboto Condensed';-inkscape-font-specification:'Roboto Condensed,  Bold';white-space:pre;fill:#ffffff;stroke-width:2.06074"
     d="m 57.420232,141.67313 q 0,6.2973 -2.083137,9.45792 -2.083136,3.13668 -6.249409,3.13668 -3.400063,0 -5.387423,-3.0409 l -0.215498,2.56201 h -6.24941 V 117.0107 h 6.752237 v 12.9777 q 1.939472,-2.58596 5.052205,-2.58596 4.357827,0 6.345187,3.16062 2.011304,3.13669 2.035248,9.24243 z m -10.319907,-8.61989 q -2.154969,0 -3.112733,1.93948 v 11.80445 q 0.93382,1.81975 3.160622,1.81975 2.226801,0 2.873292,-1.58032 0.64649,-1.5803 0.64649,-5.36347 v -1.70004 q 0,-3.51978 -0.670434,-5.21981 -0.646491,-1.70004 -2.897237,-1.70004 z m 26.266679,21.21449 q -3.136676,0 -5.100092,-2.58596 v 12.06782 h -6.752237 v -35.86826 h 6.24941 l 0.239441,2.37046 q 1.98736,-2.84935 5.315593,-2.84935 4.142324,0 6.225466,3.06485 2.107077,3.06484 2.154971,9.21847 v 1.96343 q 0,6.0818 -2.107085,9.36214 -2.083134,3.2564 -6.225467,3.2564 z m -2.059192,-21.21449 q -2.107081,0 -3.0409,1.79582 v 12.06783 q 0.933819,1.72398 3.088789,1.72398 2.011303,0 2.777511,-1.70004 0.790161,-1.70003 0.790161,-5.29164 v -1.70004 q 0,-3.68738 -0.814103,-5.29164 -0.814094,-1.60427 -2.801458,-1.60427 z m 27.655441,20.75955 -0.311272,-2.68174 q -2.0592,3.13668 -5.387431,3.13668 -4.046554,0 -6.201515,-3.18457 -2.15497,-3.18456 -2.178913,-9.19454 v -1.84369 q 0,-6.2973 2.083133,-9.45792 2.107077,-3.18457 6.321248,-3.18457 3.0409,0 5.004311,2.58596 v -12.9777 h 6.800126 v 36.77814 z m -7.302957,-12.06783 q 0,3.56768 0.742267,5.21981 0.766216,1.62821 2.825408,1.62821 2.083134,0 3.064843,-1.81975 v -11.78051 q -1.005652,-1.93948 -3.040901,-1.93948 -2.011306,0 -2.801456,1.65216 -0.790161,1.65214 -0.790161,5.33953 z m 38.621824,-0.0718 q 0,6.2973 -2.08313,9.45791 -2.08313,3.13669 -6.2494,3.13669 -3.40007,0 -5.38743,-3.0409 l -0.2155,2.56201 h -6.24941 v -36.77814 h 6.75224 v 12.9777 q 1.93947,-2.58597 5.05221,-2.58597 4.35782,0 6.34518,3.16063 2.01131,3.13668 2.03524,9.24243 z m -10.3199,-8.61988 q -2.15497,0 -3.11273,1.93947 v 11.80445 q 0.93381,1.81975 3.16063,1.81975 2.22679,0 2.87328,-1.58031 0.64649,-1.58032 0.64649,-5.36348 v -1.70004 q 0,-3.51978 -0.67043,-5.21981 -0.6465,-1.70003 -2.89724,-1.70003 z m 14.39041,-11.87627 q 0,-1.58031 1.00565,-2.58596 1.00565,-1.0296 2.70569,-1.0296 1.67609,0 2.68173,1.0296 1.00566,1.00565 1.00566,2.58596 0,1.55636 -1.00566,2.58596 -1.00564,1.00564 -2.68173,1.00564 -1.70004,0 -2.70569,-1.00564 -1.00565,-1.0296 -1.00565,-2.58596 z m 7.1114,6.70434 v 25.90752 h -6.80013 v -25.90752 z"
     id="text1"
     aria-label="bpdbi" /><path
     id="rect2"
     style="fill:#ffffff;stroke-width:0.247967"
     d="m 61.516467,161.73151 v 4.43552 h 6.750046 v -4.43552 z" /></svg>
