<?xml version="1.0" encoding="UTF-8" standalone="no"?>
<!-- Created with Inkscape (http://www.inkscape.org/) -->

<svg
   version="1.1"
   id="svg1"
   width="1280"
   height="640"
   viewBox="0 0 1280 640"
   sodipodi:docname="bpdbi-open-graph.svg"
   inkscape:version="1.4.3 (unknown)"
   xmlns:inkscape="http://www.inkscape.org/namespaces/inkscape"
   xmlns:sodipodi="http://sodipodi.sourceforge.net/DTD/sodipodi-0.dtd"
   xmlns="http://www.w3.org/2000/svg"
   xmlns:svg="http://www.w3.org/2000/svg">
  <defs
     id="defs1" />
  <sodipodi:namedview
     id="namedview1"
     pagecolor="#ffffff"
     bordercolor="#000000"
     borderopacity="0.25"
     inkscape:showpageshadow="2"
     inkscape:pageopacity="0.0"
     inkscape:pagecheckerboard="0"
     inkscape:deskcolor="#d1d1d1"
     showguides="false"
     inkscape:zoom="0.60868118"
     inkscape:cx="668.65875"
     inkscape:cy="498.619"
     inkscape:window-width="1920"
     inkscape:window-height="1008"
     inkscape:window-x="0"
     inkscape:window-y="0"
     inkscape:window-maximized="1"
     inkscape:current-layer="g1" />
  <g
     inkscape:groupmode="layer"
     inkscape:label="Image"
     id="g1">
    <path
       id="path3-9"
       style="fill:#ffffff;stroke-width:40.8872"
       d="M 0.85981394,3.2643865 V 639.65419 H 1279.9957 V 3.2643865 Z" />
    <rect
       style="fill:#000000;stroke-width:1.8111"
       id="rect3-3"
       width="1001.0128"
       height="494.91226"
       x="137.32362"
       y="73.700745"
       ry="24.617899"
       rx="24.617899" />
    <path
       style="font-weight:bold;font-size:53.3333px;font-family:'Roboto Condensed';-inkscape-font-specification:'Roboto Condensed,  Bold';white-space:pre;fill:#ffffff;stroke-width:6.82541"
       d="m 758.07284,493.17013 q 0,20.85739 -6.8996,31.32574 -6.89959,10.38906 -20.69879,10.38906 -11.26141,0 -17.84378,-10.07182 l -0.71375,8.48569 H 691.21813 V 411.48523 h 22.36421 v 42.98369 q 6.42377,-8.56501 16.73351,-8.56501 14.43363,0 21.01601,10.46834 6.66167,10.3891 6.74098,30.61203 z m -34.18076,-28.55011 q -7.13751,0 -10.30974,6.42379 v 39.09775 q 3.09293,6.02722 10.46836,6.02722 7.37542,0 9.51668,-5.23421 2.14125,-5.23414 2.14125,-17.76444 v -5.63074 q 0,-11.65793 -2.22055,-17.28863 -2.14127,-5.63074 -9.596,-5.63074 z m 86.99836,70.26491 q -10.38905,0 -16.89211,-8.565 v 39.97004 H 771.63412 V 447.49005 h 20.69879 l 0.79305,7.85124 q 6.58238,-9.43738 17.60587,-9.43738 13.71988,0 20.61949,10.15114 6.97889,10.15111 7.13752,30.53267 v 6.50311 q 0,20.14364 -6.97892,31.00852 -6.89958,10.78558 -20.61948,10.78558 z m -6.82029,-70.26491 q -6.9789,0 -10.07182,5.94797 v 39.97009 q 3.09292,5.71002 10.23043,5.71002 6.66168,0 9.19945,-5.63073 2.61711,-5.6307 2.61711,-17.52654 v -5.63073 q 0,-12.21304 -2.69641,-17.52654 -2.69637,-5.31354 -9.27876,-5.31354 z m 91.59811,68.7581 -1.03098,-8.88225 q -6.82031,10.38906 -17.84381,10.38906 -13.40266,0 -20.54015,-10.54767 -7.13751,-10.54764 -7.21682,-30.4534 v -6.10653 q 0,-20.8574 6.89958,-31.32575 6.9789,-10.54767 20.93673,-10.54767 10.07182,0 16.57487,8.56501 v -42.98369 h 22.52283 V 533.2988 Z m -24.18827,-39.97009 q 0,11.81658 2.45848,17.28863 2.5378,5.39283 9.35808,5.39283 6.89959,0 10.15113,-6.02723 v -39.01845 q -3.33084,-6.42379 -10.07183,-6.42379 -6.66168,0 -9.27875,5.47216 -2.61711,5.47208 -2.61711,17.68515 z M 999.4,493.17022 q 0,20.85741 -6.8995,31.32572 -6.8996,10.3891 -20.6988,10.3891 -11.2614,0 -17.8438,-10.07183 l -0.7137,8.48568 H 932.54538 V 411.48533 h 22.36412 v 42.98368 q 6.4238,-8.56504 16.7336,-8.56504 14.4336,0 21.016,10.46838 6.6617,10.38906 6.7409,30.61203 z m -34.1807,-28.55007 q -7.1375,0 -10.3098,6.42376 v 39.09774 q 3.093,6.02723 10.4684,6.02723 7.3755,0 9.5167,-5.23417 2.1413,-5.23421 2.1413,-17.76449 v -5.63073 q 0,-11.65793 -2.2206,-17.28864 -2.1413,-5.6307 -9.596,-5.6307 z m 47.6627,-39.33561 q 0,-5.23417 3.3309,-8.565 3.3308,-3.41017 8.9616,-3.41017 5.5514,0 8.8821,3.41017 3.331,3.33083 3.331,8.565 0,5.15485 -3.331,8.56501 -3.3307,3.3308 -8.8821,3.3308 -5.6308,0 -8.9616,-3.3308 -3.3309,-3.41016 -3.3309,-8.56501 z m 23.5539,22.20557 v 85.80878 h -22.5229 v -85.80878 z"
       id="text1"
       aria-label="bpdbi" />
    <path
       id="rect2"
       style="fill:#ffffff;stroke-width:0.821296"
       d="m 771.64005,559.60586 v 14.69097 h 22.35696 v -14.69097 z" />
    <path
       id="path3"
       style="fill:#ffffff;stroke-width:20.9001"
       d="M 187.08204,100.03013 V 543.67792 H 622.36797 V 100.03013 Z"
       sodipodi:nodetypes="ccccc" />
    <path
       style="fill:#000000;stroke-width:4.16738"
       d="M 180.89823,299.93365 V 97.412649 H 381.18586 678.9296 V 299.93365 563.21346 H 381.18586 180.89823 Z m 242.09373,211.26214 c 16.55662,-11.59668 11.64228,-15.84245 -78.13537,-67.50489 l -69.09349,-39.75978 -0.66257,-80.5353 C 274.36769,234.32 274.2708,233.6428 260.17633,219.08003 247.48876,205.97088 247.92332,202.35388 248.52374,316.06624 l 0.54837,103.85615 81.38208,47.2213 c 85.1073,49.3828 85.00003,49.33177 92.53777,44.0521 z m 38.41819,-7.50283 c 14.42071,-14.42069 13.84072,-9.43595 13.84072,-118.95698 v -99.10006 l -90.89426,-52.56209 c -98.86056,-57.16879 -93.19444,-54.47008 -101.17831,-48.18997 -14.56692,11.45833 -13.84499,12.04981 85.0059,69.64187 l 81.70084,47.60021 0.54838,104.0664 c 0.3213,61.01165 1.34739,104.06638 2.47967,104.06638 1.06216,0 4.88587,-2.95458 8.49706,-6.56576 z m 48.06744,-27.78378 c 14.97396,-15.77886 14.39115,-10.92628 14.39115,-119.82558 v -98.15891 l -90.89425,-52.43857 c -94.76375,-54.67089 -95.66208,-55.09359 -102.5203,-48.23533 -12.38205,12.38202 -13.29596,11.63914 84.29486,68.52179 l 82.69693,48.20151 v 102.99327 c 0,115.42723 -0.41057,112.05261 12.03161,98.94182 z m -84.33585,-22.40857 c 9.46049,-12.05139 5.49949,-15.82595 -50.29733,-47.92995 l -51.78859,-29.79779 -1.05691,-54.83018 c -1.18334,-61.38902 -7.11441,-81.25294 -24.26093,-81.25294 -0.63671,0 -0.90798,34.35194 -0.60282,76.3376 l 0.55481,76.3376 58.02655,33.58863 c 59.57187,34.48318 62.93324,35.8169 69.42522,27.54703 z m 142.06033,-18.48678 c 5.28455,-10.24511 5.28455,-10.24511 5.28455,-107.40243 V 230.45413 L 481.63599,177.99882 C 431.66818,149.14835 388.9382,125.5435 386.6805,125.5435 c -8.91777,0 -15.1835,12.60156 -10.17889,20.47174 0.87585,1.37737 39.14789,24.36019 85.04889,51.07291 l 83.45647,48.56861 0.52859,102.17906 c 0.61948,119.75495 1.99927,125.30681 21.66651,87.17801 z M 423.82431,398.95557 c 2.27105,-2.05527 3.86562,-6.40267 3.86562,-10.53909 0,-7.90047 -0.43598,-8.24945 -36.46339,-29.18956 -20.60977,-11.97896 -20.60977,-11.97896 -20.60977,-34.33393 0,-27.10641 -2.46192,-36.09798 -13.23464,-48.33644 -12.16227,-13.81709 -12.1312,-13.91706 -12.1312,39.04077 v 48.42788 l 32.23576,19.04787 c 33.24585,19.64476 39.72604,21.86589 46.33762,15.8825 z"
       id="path1"
       sodipodi:nodetypes="cccccccccsscssscsssscsssccsscscssscscsscssscsssscsssscsssssssscss" />
  </g>
</svg>
